<svg xmlns="http://www.w3.org/2000/svg" width="215.093" height="45.852" viewBox="0 0 215.093 45.852"><g transform="translate(-0.907)"><path d="M17.018,13.833c9.277,0,15.59,6.821,15.59,14.78,0,2.654-1.741,3.791-4.895,3.791H9.481c.517,3.853,3.671,7.073,8.955,7.073a13.494,13.494,0,0,0,6.313-1.707,3.117,3.117,0,0,1,1.546-.38,3.239,3.239,0,0,1,3.22,3.159,3.317,3.317,0,0,1-1.74,2.778A21.027,21.027,0,0,1,17.53,45.852C8.059,45.852.907,39.6.907,29.807A15.684,15.684,0,0,1,17.018,13.833ZM9.349,26.971H24.682c-.194-2.906-2.253-6.759-7.665-6.759A7.42,7.42,0,0,0,9.349,26.971Z" fill="#fcf7f2"/><path d="M33.958,39.981a3.405,3.405,0,0,1,3.415-3.349,3.944,3.944,0,0,1,1.741.442,17.107,17.107,0,0,0,8.442,2.588c3.543,0,5.217-1.2,5.217-3.1,0-2.146-2.7-2.906-6.251-3.6-5.345-1.009-12.241-2.274-12.241-9.537,0-5.114,4.572-9.6,12.758-9.6a19.552,19.552,0,0,1,10.244,2.716A3,3,0,0,1,58.895,19.2a3.194,3.194,0,0,1-4.7,2.716,13.809,13.809,0,0,0-7.086-1.96c-2.964,0-4.895,1.075-4.895,2.84,0,1.893,2.447,2.588,5.928,3.282,5.346,1.009,12.5,2.4,12.5,9.98,0,5.622-4.833,9.79-13.465,9.79A22.42,22.42,0,0,1,35.7,42.879,3.361,3.361,0,0,1,33.958,39.981Z" fill="#fcf7f2"/><path d="M63.27,4.8a4.9,4.9,0,0,1,9.79,0,4.9,4.9,0,0,1-9.79,0Zm.839,36.7V18.19a4.091,4.091,0,0,1,8.181,0v23.3a4.112,4.112,0,0,1-4.122,4.043A4.052,4.052,0,0,1,64.109,41.5Z" fill="#fcf7f2"/><path d="M76.028,41.118a3.971,3.971,0,0,1,.9-2.588L90.522,21.605H79.632a3.507,3.507,0,1,1,0-7.012H98.124a3.866,3.866,0,0,1,3.932,3.853,3.63,3.63,0,0,1-.839,2.4L87.368,38.092h11.4a3.506,3.506,0,1,1,0,7.011H80.087A4.009,4.009,0,0,1,76.028,41.118Z" fill="#fcf7f2"/><path d="M120.223,13.833c9.277,0,15.59,6.821,15.59,14.78,0,2.654-1.741,3.791-4.9,3.791H112.686c.517,3.853,3.671,7.073,8.955,7.073a13.5,13.5,0,0,0,6.313-1.707,3.114,3.114,0,0,1,1.546-.38,3.239,3.239,0,0,1,3.22,3.159,3.317,3.317,0,0,1-1.74,2.778,21.026,21.026,0,0,1-10.245,2.526c-9.471,0-16.623-6.251-16.623-16.045A15.683,15.683,0,0,1,120.223,13.833Zm-7.669,13.138h15.334c-.195-2.906-2.254-6.759-7.665-6.759A7.424,7.424,0,0,0,112.554,26.971Z" fill="#fcf7f2"/><path d="M141.773,37.381a4.139,4.139,0,1,1-4.221,4.138A4.228,4.228,0,0,1,141.773,37.381Z" fill="#fcf7f2"/><path d="M187.541,27.26V42.185a3.337,3.337,0,0,1-6.672,0V29.509c0-2.3-1.042-3.936-3.754-3.936a6.719,6.719,0,0,0-5.213,2.861V42.18a3.337,3.337,0,0,1-6.673,0V29.509c0-2.3-1.042-3.936-3.754-3.936a6.785,6.785,0,0,0-5.213,2.915v13.7a3.309,3.309,0,0,1-6.618,0V23.324A3.294,3.294,0,0,1,152.926,20a3.349,3.349,0,0,1,3.39,3.324v.256A11.156,11.156,0,0,1,164.5,19.8c3.7,0,6.048,1.687,6.986,4.5a10.741,10.741,0,0,1,8.653-4.5C184.78,19.8,187.541,22.2,187.541,27.26Z" fill="#fcf7f2"/><path d="M203.387,19.8c7.507,0,12.613,5.519,12.613,11.96,0,2.146-1.406,3.067-3.961,3.067h-14.75c.417,3.117,2.972,5.726,7.247,5.726a10.956,10.956,0,0,0,5.11-1.381,2.531,2.531,0,0,1,1.252-.306A2.622,2.622,0,0,1,213.5,41.42a2.684,2.684,0,0,1-1.406,2.249,17,17,0,0,1-8.289,2.046c-7.664,0-13.448-5.06-13.448-12.981A12.682,12.682,0,0,1,203.387,19.8Zm-6.2,10.633h12.407a5.781,5.781,0,0,0-6.2-5.47A6,6,0,0,0,197.185,30.431Z" fill="#fcf7f2"/></g></svg>