<svg xmlns="http://www.w3.org/2000/svg" width="421.686" height="439.003" viewBox="0 0 421.686 439.003"><g transform="translate(-616 -1411)"><path d="M411.551,139.132a4.9,4.9,0,0,0-1.213-.849l-6.384-3.271c-6.81-3.527-13.854-7.2-20.834-10.727-1.788-.893-3.6-1.615-5.533-2.358l-2.128-.85v-.149a6.74,6.74,0,0,1,.234-1.04l4.6-12.873,7.171-20.2c.7-2,1.362-4.015,2-6.033.425-1.317.829-2.634,1.276-3.93a3.627,3.627,0,0,0-.723-3.866,15.7,15.7,0,0,0-6.193-4.758l-5.469-1.954-6.384-2.294-11.428-3.951-8.108-2.846-2.128-.7a35.308,35.308,0,0,1-5.065-1.89A134.679,134.679,0,0,0,326.9,47.815L315.7,44.374c-5.895-1.806-11.981-3.675-17.961-5.587-5.065-1.614-10.215-3.377-15.173-5.077L275.4,31.246l-8.512-2.868c-5.512-1.848-11.024-3.7-16.514-5.587-3.469-1.19-6.98-2.337-10.471-3.484-8.512-2.825-17.343-5.735-25.813-9.219C208.148,7.668,202,5.5,196.04,3.42L189.23,1a19.409,19.409,0,0,0-3.618-.85,7.779,7.779,0,0,0-5.937,1.062,7.594,7.594,0,0,0-2.788,5.268,29.008,29.008,0,0,0-.234,4.248,63.077,63.077,0,0,0,6.512,26.955,73.709,73.709,0,0,0,14.492,20.35l4.533,4.524a12.052,12.052,0,0,1-.809,1.02c-3.49,3.738-7,7.477-10.534,11.173-.83.892-1.7,1.763-2.575,2.634-1.4,1.4-2.852,2.868-4.256,4.4-4.916,5.565-9.768,11.173-14.641,16.781l-6.576,7.583-2.362,2.655a83.387,83.387,0,0,0-7.917,9.835l-.362.553a23.383,23.383,0,0,0-2.6,4.673c-1.362,3.7-1.085,6.542.851,8.666a14.33,14.33,0,0,0,7.725,4.631l7.959,1.636,6.619,1.38a6.519,6.519,0,0,1,1.6.4h.149a31.7,31.7,0,0,1-4.533,6.946c-1.128,1.381-2.32,2.74-3.49,4.078-.788.892-1.575,1.784-2.341,2.7-1.3,1.529-2.6,3.08-3.937,4.716l-1.149,1.38-.49-1.019c-.6-1.254-1.149-2.4-1.7-3.505a20.77,20.77,0,0,0-17.2-11.683,31.787,31.787,0,0,0-11.151.743,29.1,29.1,0,0,0-10.9,4.249c-.511.361-.873.276-1.766,0a28.823,28.823,0,0,0-16.536-1.147h-.17a11.472,11.472,0,0,1-2.128.382,35.313,35.313,0,0,0-17.748,5.565A26.894,26.894,0,0,0,66.95,170.7c-1.149,4.376-2.128,8.837-3.15,13.149-.4,1.784-.809,3.547-1.234,5.31l-1.554,6.628c-1.426,6.075-2.915,12.384-4.256,18.586-.4,1.869-.723,3.76-1,5.608-.383,2.294-.766,4.673-1.341,6.946-1,3.887-2.128,7.8-3.384,11.577-.6,1.933-1.192,3.866-1.766,5.82q-1.511,5.034-2.873,10.111c-.511,1.89-1,3.781-1.511,5.671-.766,2.932-1.554,5.969-2.4,8.922-2,6.882-4.256,14.147-6.491,21.56-2.532,8.114-5.086,16.059-7.725,24.173-2.277,7.052-4.618,14.1-6.959,21.242l-.34,1.062c-2.256,6.776-4.49,13.552-6.81,20.307-.7,2.124-1.447,4.057-2.128,6.075s-1.7,4.609-2.469,6.946q-1.66,4.969-3.213,9.962l-2.6,8.072c-.489,1.465-1.021,2.931-1.553,4.4S1.043,395.986.532,397.6a3.689,3.689,0,0,0,.192,3.016,5.814,5.814,0,0,0,5.533,2.911c1.021-.192,2.022-.489,2.979-.765l1.979-.552A3.659,3.659,0,0,0,14,399.384c1.979-6.5,4.256-13.446,6.7-21.241.7-2.124,1.447-4.248,2.128-6.373s1.468-4.142,2.128-6.223c.936-2.868,1.83-5.736,2.724-8.5.617-2.124,1.234-4.078,1.894-6.1l.638-2.018c1.724-5.417,3.511-11.025,5.341-16.505.83-2.464,1.7-4.928,2.575-7.392,1.021-2.868,2.128-5.863,3.043-8.837,2.128-6.245,3.958-12.745,5.725-18.607.575-1.933,1.085-3.888,1.6-5.842.851-3.271,1.745-6.67,2.915-9.877,2.554-6.967,4.49-14.232,6.384-21.242q1.149-4.4,2.362-8.794c.468-1.614.851-3.292,1.213-4.907.213-.934.426-1.869.66-2.825s.426-1.657.638-2.485c.426-1.529.851-3.122,1.149-4.737.532-3.037,1.022-6.054,1.532-9.091.617-3.887,1.277-7.923,2.022-11.874S68.95,208.507,69.8,204.9c.4-1.656.787-3.292,1.149-4.928l.191-.807c.128-.573.277-1.147.383-1.72.319-1.912.617-3.8.915-5.693A86.653,86.653,0,0,1,77.271,171.7a1.384,1.384,0,0,0,.106-.446c.3-3.208,2.4-5.311,4.639-7.52l.17-.17c.319-.318.7-.616,1.064-.913a8.077,8.077,0,0,0,1.66-1.53,8.033,8.033,0,0,1,3.937-2.485l1.4-.425a19.684,19.684,0,0,0,2.32-.764,17.518,17.518,0,0,1,14.62.3,31.156,31.156,0,0,1,6.512,4.248,45.487,45.487,0,0,1,11.662,13.51,83.445,83.445,0,0,1,3.915,8.5c.447,1.125.894,2.124,1.362,3.313a2.3,2.3,0,0,1,.128.7l-1.511.3A18.819,18.819,0,0,0,125,189.432a23.115,23.115,0,0,0-14.279,18.8A26.012,26.012,0,0,0,113,223.1c2.723,5.906,6.384,9.049,11.47,9.878a4.8,4.8,0,0,1,.915.276,5.544,5.544,0,0,1-4.767,1.912c-3.6-.234-5.533-1.275-6.64-3.611-.489-1.02-1-2.125-1.511-3.017a64.311,64.311,0,0,1-3.064-6.627c-1.49-4.079-2.894-8.284-4.256-12.341-1.192-3.548-2.4-7.116-3.682-10.621s-2.788-6.8-4.383-10.175a3.493,3.493,0,0,0-4.7-2.124c-.724.212-1.447.4-2.128.552-1.511.3-2.532.637-2.958,1.466s-.128,1.89.553,3.42l.532,1.189c1.128,2.528,2.277,5.119,3.192,7.753,1.426,4.036,2.788,8.093,4.15,12.129,1.66,4.928,3.384,10.026,5.15,15a21.376,21.376,0,0,0,7.193,10.281,18.947,18.947,0,0,0,20.558,1.805,20.007,20.007,0,0,0,3.043-1.89l.83-.6c0,.213.213.4.276.574a29.335,29.335,0,0,0,6.385,9.558,35.923,35.923,0,0,0,8.682,6.564,56.062,56.062,0,0,0,12.088,5.9c1.468.446,2.873,1,4.384,1.593l.574.234-.468.191a26.546,26.546,0,0,0-3.66,1.763,62.381,62.381,0,0,0-11.385,9.941l-1.533,1.551a69.688,69.688,0,0,0-13.832,20.456c-.192.424-.362.849-.532,1.295a12.725,12.725,0,0,1-.979,2.124,61.147,61.147,0,0,0-4.682,10.749l-.106.34c-.915,2.506-1.788,5.013-2.66,7.519s-1.958,5.608-2.959,8.391c-.723,2-1.489,3.993-2.255,5.99-1.128,2.888-2.3,5.9-3.3,8.9-1.66,4.949-3.192,10.005-4.682,14.869l-1.511,4.928c-.3.977-.553,1.954-.83,2.931s-.638,2.316-1,3.463c-1.277,4.014-2.6,8.008-3.894,12-1.681,5.183-3.362,10.345-5,15.528-.958,2.974-1.873,5.99-2.788,9.006s-1.766,5.736-2.66,8.6l-.213.6c-.532,1.572-1.213,3.547,1.021,5.119a1.277,1.277,0,0,1,.17.489,2.423,2.423,0,0,0,2.128,1.975,10.493,10.493,0,0,1,1.362.51l.958.382a3.814,3.814,0,0,0,3.17,0,3.735,3.735,0,0,0,1.873-2.421c1.469-5.247,2.937-10.472,4.427-15.719l1.468-5.183c.106-.382.191-.765.3-1.126a16.346,16.346,0,0,1,.66-2.251,108.679,108.679,0,0,0,5.384-16.994l.4-1.763c.489-2.124.979-4.248,1.639-6.372,1.957-6.054,4-12.172,6-18.1l2.128-6.372c2.128-6.012,4.043-12.023,6.129-18.013.7-2.018,1.447-3.994,2.128-5.969,1.255-3.335,2.554-6.776,3.575-10.239a74.5,74.5,0,0,1,5.746-14.317,54.267,54.267,0,0,1,9.81-14.061c4.257-4.249,9-8.37,15.216-9.92a110.5,110.5,0,0,1,14.258-2.719c4.725-.489,9.556-.7,14.237-.892l5.214-.234h5.916c4.384-.319,8.725-.7,12.024-1.02a10.793,10.793,0,0,0,3.171-.7,5.434,5.434,0,0,0,2.894-4.843,4.614,4.614,0,0,0-4.15-3.313,24.7,24.7,0,0,0-8.129,0,41.918,41.918,0,0,1-5.49.509H190.081c-1,0-1.128-.191-1.149-.191a4.164,4.164,0,0,1,.149-.956,25.736,25.736,0,0,1,12.406-15.039,22.224,22.224,0,0,1,7.3-2.74c1.085-.212,2.128-.4,3.256-.68a14.636,14.636,0,0,1,2.915-.3,156.061,156.061,0,0,1,23.409.935,110.4,110.4,0,0,1,19.983,3.993,13.221,13.221,0,0,1,8.278,8.072,18.819,18.819,0,0,1,1.213,8.751,49.258,49.258,0,0,1-3.085,14.3,23.123,23.123,0,0,1-9.534,11.789,43.965,43.965,0,0,1-14.152,5.99,109.384,109.384,0,0,1-11.513,2.124c-2.618.34-5.32.553-7.917.765-1.957.17-3.915.319-5.873.531h-.851c-1.447.128-2.469.234-3.086,1.041s-.6,1.933-.106,4.439a4.7,4.7,0,0,0,5.916,4.376l2.851-.276c1.7-.255,3.448-.531,5.172-.616a88.612,88.612,0,0,0,25.813-4.843,32.776,32.776,0,0,0,12.237-6.372,63.085,63.085,0,0,0,10.278-13.574,16.961,16.961,0,0,0,2.256-5.119c1.532-6.967,2.809-14.423.468-21.858a14,14,0,0,1-.4-1.89,2.143,2.143,0,0,0,0-.34h3.15a32.258,32.258,0,0,1,7.49.51c1.022.233,2.129.382,3.086.531a26.649,26.649,0,0,1,3.682.7h.383a30.364,30.364,0,0,1,7.129,2.612,12.467,12.467,0,0,1,5.916,8.03,30.767,30.767,0,0,1-.6,16.611,26.191,26.191,0,0,1-10.768,15.166c-2.128,1.36-4.256,2.634-6.384,3.866l-1.49.871a196.447,196.447,0,0,1-24.026,12.469,3.043,3.043,0,0,0-1.83,1.657,2.823,2.823,0,0,0,.319,2.273,21.789,21.789,0,0,0,2.128,3.25c2.128,2.7,3.192,2.888,6.172,1.147.638-.361,1.255-.765,1.872-1.147s1.788-1.147,2.7-1.636c1.937-1,3.894-1.976,5.852-2.953s3.895-1.933,5.831-2.952a114.765,114.765,0,0,0,20.132-13.4,32.677,32.677,0,0,0,11.981-21.9c.213-1.8.341-3.611.49-5.374,0-1.1.148-2.124.255-3.314s.17-1.805.234-2.718c.213-2.528.447-5.141.83-7.69.319-2.124.489-4.248.66-6.372a52.431,52.431,0,0,1,1.6-10.621c.51-1.721.979-3.463,1.426-5.2.787-2.889,1.574-5.884,2.6-8.773a48.392,48.392,0,0,1,9.193-15.613,12.6,12.6,0,0,1,.915-.934l-.191.4-.383.765c-3.086,6.585-3.554,14.041-1.426,22.75A19.146,19.146,0,0,0,352.56,248.59a18.514,18.514,0,0,1,2.639.128h.639v1.848c0,1.253-.107,2.528-.192,3.8-.127,2.528-.255,5.162-.255,7.753a108.7,108.7,0,0,1-2.128,22.538,37.567,37.567,0,0,1-4.895,13.127,71.025,71.025,0,0,1-10.385,11.81,129.149,129.149,0,0,1-20.855,16.335,199.51,199.51,0,0,1-23.707,13.042l-.341.149c-8.895,4.036-18.067,8.2-25.749,14.763a12.892,12.892,0,0,0-5.087,7.413,103.221,103.221,0,0,0-1.3,11,110.477,110.477,0,0,0,.277,12.193c0,1.423.17,2.825.234,4.248.3,6.373.4,12.936.511,19.245,0,4.249.149,8.688.3,13.021,0,2.995.383,6.012.659,8.922l.32,3.356a5.159,5.159,0,0,0,3.319,4.588,10.787,10.787,0,0,0,8.662-.531,2.3,2.3,0,0,0,1.4-1.3,2.608,2.608,0,0,0-.127-2.124,5.126,5.126,0,0,1-.362-1.72c0-.7-.128-1.424-.17-2.125s-.128-1.614-.213-2.4a10.733,10.733,0,0,0-.234-1.4,10.969,10.969,0,0,1-.234-1.593l-.171-3.951c-.234-5.161-.489-10.621-.574-15.761-.149-8.6-.213-17.333-.277-25.787v-6.776a13.189,13.189,0,0,1,1.49-6.373,21.916,21.916,0,0,1,9.619-10.387,9.073,9.073,0,0,0,1.085-.616,4.973,4.973,0,0,1,.724-.446l3.4-1.891c2.617-1.465,5.32-2.973,8.044-4.248l2.256-1.041a117.244,117.244,0,0,0,19.961-10.939,22.184,22.184,0,0,1,3-1.721l.787-.382a6.958,6.958,0,0,1,0,.913l.128,4.865c0,3.377.149,6.839.3,10.259.106,2.124.3,4.249.468,6.373.127,1.359.234,2.719.34,4.1.171,2.507.319,5.013.49,7.52.276,4.418.553,8.985.936,13.467.213,2.485.511,5.013.83,7.456s.532,4.376.745,6.564c1.106,12.044,2.128,23.9,3.043,35.218a14.98,14.98,0,0,0,2.511,7.392l.192.276h3.022c2.3,0,4.617.149,6.916.191a3.062,3.062,0,0,0,3.235-3.122,15.8,15.8,0,0,0,0-2.422c-.235-2.251-.447-4.524-.639-6.776-.511-5.31-1-10.812-1.809-16.186-1.17-7.987-2.128-16.122-2.681-24.151-.426-5.544-.724-11.195-1.022-16.675,0-2.124-.212-4.248-.34-6.373l-.319-5.267c-.277-4.567-.554-9.283-.7-13.914-.127-4.248-.149-8.666-.17-12.893v-7.35a3.8,3.8,0,0,1,1.362-3.314,83.811,83.811,0,0,0,11.471-12.575c.255-.34.489-.679.723-1.04a6.618,6.618,0,0,1,.447-.659l.83-1.168.915-1.275c.319-.467.681-.913,1.022-1.38a24.532,24.532,0,0,0,2.319-3.505,34.951,34.951,0,0,0,1.6-3.675c.4-1.041.83-2.124,1.341-3.144,4.107-8.39,4.575-17.482,4.49-25.277,0-4.95,0-10.3.149-16.378,0-3.143.255-6.372.426-9.452,0-1.275.149-2.528.212-3.8v-.17a7.315,7.315,0,0,1,.149-1.806,93.921,93.921,0,0,0,.937-18.544,17.163,17.163,0,0,0-4.512-11.088,16.9,16.9,0,0,0-7.4-5.4,2.122,2.122,0,0,1-.979-.6c-.7-.828-.7-1.1-.7-1.147.3-1.954.681-3.866,1.086-5.9l.3-1.53h.3a4.919,4.919,0,0,1,1.4.128l3.277.488c2.256.34,4.6.7,6.917.893,4.256.361,8.512.446,12.109.488h.446a83.406,83.406,0,0,0,16.855-.935,30.71,30.71,0,0,0,14.684-7.052,30.273,30.273,0,0,0,4.809-5.82c.532-.765,1.064-1.529,1.618-2.273a4.687,4.687,0,0,0,.808-1.593l.639-2.315a33.811,33.811,0,0,0,1.745-13.446A34.814,34.814,0,0,0,411.551,139.132Zm-277.29,62.344a40.893,40.893,0,0,1-1.851,7.817,44.219,44.219,0,0,0-2.767,15.953c-2.511.4-4-1.232-5.554-2.974l-.256-.276a13.611,13.611,0,0,1-2.617-6.012l-.192-.722a16.969,16.969,0,0,1,0-8.773,10.662,10.662,0,0,1,1.426-3.271,23.244,23.244,0,0,1,8.257-7.349h.213a2.447,2.447,0,0,1,1,.255,4.563,4.563,0,0,1,2.341,5.352Zm17.387-31.246a62.341,62.341,0,0,0-7.576,12.745c-.681,1.4-1.362,2.783-2.128,4.248-.107.213-.256.425-.4.68-.319-.871-.617-1.72-.915-2.57-.915-2.57-1.766-5.034-2.511-7.5a51.2,51.2,0,0,0-10.875-19.564l-2.511-3.016-.617-.7c4.81-1.508,9.321-2.953,14.067-.871a61.553,61.553,0,0,1,5.661,2.868c4.618,2.633,6.575,7.222,8.193,11.725a1.827,1.827,0,0,1-.383,1.954Zm79.739,16.25c3.469,0,6.9-.382,10.534-.722l4.937-.468h.7L246.22,176.3h-1.809a18.63,18.63,0,0,0-2.83.255,40.055,40.055,0,0,1-10.258.935c-3.362-.17-6.661-.149-10.342,0a61.2,61.2,0,0,1-25.346-5.523,109.185,109.185,0,0,1-14.9-8.327l-1.469-.913-.808-.51a16.712,16.712,0,0,1-2.129-1.4c-.936-.743-1.83-1.593-2.787-2.464l-.915-.85.893-1.21c.958-1.275,1.852-2.486,2.7-3.76l.553-.807c1.873-2.825,3.81-5.714,5.512-8.709a12.413,12.413,0,0,0,1.192-4.44v-.191a5.294,5.294,0,0,0-3.873-5.056c-1.362-.339-2.746-.594-4.086-.828l-2-.361-2.553-.489c-2.128-.424-4.512-.871-6.725-1.38l-.851-.192a6.731,6.731,0,0,1-4.6-2.294,30.046,30.046,0,0,1,6.512-8.709l1.192-1.253c3.6-3.823,7.3-7.9,11-12.15q4.895-5.565,9.7-11.194l7.746-8.964c3.363-3.866,6.7-7.583,9.513-10.621.936-1.02,1.894-2.018,2.851-3.016s1.98-2.124,2.937-3.144c.511-.595.873-.659,1.745-.319a79.736,79.736,0,0,0,18.11,5.226c4.044.552,8.151.786,12.343.977a65.027,65.027,0,0,0,13.918-1.232c2.022-.34,2.128-.34,2.681,1.678a37.323,37.323,0,0,0,3.916,7.753c.383.637.766,1.253,1.128,1.891a57.213,57.213,0,0,0,6.767,8.73l1.724,1.975a93.154,93.154,0,0,0,17.9,16.293,152.219,152.219,0,0,0,14.109,8.5,29.96,29.96,0,0,0,7.683,2.549,95.66,95.66,0,0,0,22.515,2.783,177.63,177.63,0,0,0,26.218-1.891h.851l-.34,1.02c-.447,1.359-.873,2.634-1.32,3.887-.638,1.742-1.3,3.484-1.979,5.2-1.3,3.42-2.639,6.925-3.767,10.472-1.532,4.822-2.915,9.793-4.256,14.593-.532,1.955-1.085,3.909-1.638,5.842l-1.149,4.078c-1.277,4.461-2.554,8.943-3.767,13.425s-2.49,9.261-3.49,13.934c-.49,2.316-1.086,3.441-3.086,3.7a4.626,4.626,0,0,0-1.894.914l-.4.255-1.128.807a14.02,14.02,0,0,1-1.362.934,28.661,28.661,0,0,0-11.343,12.363,74.261,74.261,0,0,0-5.916,16.484,96.858,96.858,0,0,0-1.851,12.405c-.192,1.72-.362,3.441-.6,5.14-.128,1.1-.341,2.124-.554,3.42l-.127.786a.955.955,0,0,1-.149-.149,10.42,10.42,0,0,0-1.873-1.7l-2.809-1.593c-4.661-2.7-9.491-5.5-15.237-6.075-2.958-.276-6.086-.595-9.172-1-3.873-.488-8-1.062-12.641-1.763a2.123,2.123,0,0,1-.851-.382l-.532-.3c-1.107-.553-2.128-1.126-3.256-1.7a52.073,52.073,0,0,0-7.64-3.568,82.217,82.217,0,0,0-10.853-2.741l-2.32-.488a121.087,121.087,0,0,0-17.94-1.869h-1.362a79.48,79.48,0,0,0-16.195.276,37.177,37.177,0,0,0-21.94,11.088,25.831,25.831,0,0,0-4.831,8.072,59.628,59.628,0,0,0-2.128,5.82c-.213.658-.447,1.3-.681,1.954l-2.3-.956c-2.128-.892-4.256-1.72-6.278-2.676-6.831-3.144-12.428-5.8-17.578-8.327a15.9,15.9,0,0,1-3.682-2.783,28.581,28.581,0,0,1-8.065-12.744,29.685,29.685,0,0,1-.639-12.639,55.64,55.64,0,0,1,4.448-14.721,207.767,207.767,0,0,1,20.557-36.386,2.821,2.821,0,0,1,.341-.383c.383.234.745.489,1.106.744a112.865,112.865,0,0,0,26.559,15.187,66.312,66.312,0,0,0,19.408,4.249A165.782,165.782,0,0,0,231.387,186.48Zm135.9-40.359,2.128.765c1.128.446,2.256.87,3.4,1.274a66.09,66.09,0,0,1,7.895,3.314c3.618,1.933,7.342,3.908,9.151,7.923a4.518,4.518,0,0,1,.617,2.91c-.213.658-.872,1.211-2.128,1.763a20.846,20.846,0,0,1-6.384,2,75.809,75.809,0,0,1-18.749-.4,8.945,8.945,0,0,1-1.213-.34h-.234a194.64,194.64,0,0,1,5.044-19.287ZM379.651,78c-.234.637-.426,1.3-.617,1.954a20.874,20.874,0,0,1-.724,2.124l-4.6,11.3q-2.128,5.268-4.257,10.621c-.766,1.89-1.766,4.418-2.6,7.01a2.381,2.381,0,0,1-2.128,1.826l-3.043.361a145.927,145.927,0,0,1-23.984,1.572l-4.256-.148a70.556,70.556,0,0,1-16.024-1.721,47.987,47.987,0,0,1-10.385-3.93,103.81,103.81,0,0,1-17.025-10.833,92.747,92.747,0,0,1-19.834-22.07,22.9,22.9,0,0,1-3.6-9.983c-.256-2.315-.575-3.611-1.533-4.248a2,2,0,0,0-1-.255,8.312,8.312,0,0,0-3.171,1.02,38.683,38.683,0,0,1-17.492,3.016,85.71,85.71,0,0,1-28.219-5.055,27.26,27.26,0,0,1-10.747-7.583,130.683,130.683,0,0,1-10.64-13.595,35.9,35.9,0,0,1-5.874-16.717c-.17-1.614-.4-3.207-.617-4.822q-.276-1.912-.511-3.823c0-.7-.127-1.423-.17-2.124v-.574a10.248,10.248,0,0,1,3.873,1.062l.49.212A314.452,314.452,0,0,0,224.322,24.81a61.593,61.593,0,0,1,5.831,2.124c1.532.616,3.128,1.253,4.724,1.784l6.235,2.124c7.853,2.634,15.982,5.374,24.069,7.753,10,2.953,19.791,6.2,31.411,10.175l11.151,3.823c5.533,1.933,11.236,3.93,16.876,5.8,3.362,1.126,6.81,2.124,10.172,3.1,2.681.765,5.363,1.551,8.023,2.379s5.958,2,8.853,3l5.448,1.891,13.215,4.4,7,2.337c.554.191,1.086.382,1.618.616.83.446,1.149.956.7,1.869ZM358.37,179.6c.4-1.785.809-3.59,1.277-5.4,0-.233,0-.34,1.064-.212h.17l2.128.276c1.639.234,3.342.467,5.044.552,4.469.213,9.087.446,13.641.3a20.964,20.964,0,0,0,15.3-6.776,11.16,11.16,0,0,0,2.979-8.327,11.335,11.335,0,0,0-4.256-8.051c-.574-.467-1.128-.977-1.7-1.487a23.238,23.238,0,0,0-3.49-2.761,111.125,111.125,0,0,0-10.215-5.417c-2.554-1.232-5.108-2.379-7.789-3.589l-3.086-1.381,2.277-6.861a18.979,18.979,0,0,1,5.938,1.975,162.08,162.08,0,0,1,26.409,15.443,15.433,15.433,0,0,1,4.661,7.073,36.573,36.573,0,0,1,2.128,10.77,20.956,20.956,0,0,0,.277,2.57,7.243,7.243,0,0,1-2.661,5.565,21.292,21.292,0,0,1-14.151,7.541c-3.256.276-6.555.637-9.747.977l-1.256.149a105.518,105.518,0,0,1-25.154-1.126l-.3-.127Zm-14.726,40.571a12.445,12.445,0,0,1,3.256-6.139,39.963,39.963,0,0,1,4.128-3.7,4.264,4.264,0,0,1,2.448-1,2.39,2.39,0,0,1,.681.106,3.7,3.7,0,0,1,2.128,2.592,21.771,21.771,0,0,1,1.489,8.029c-.17,4.567-.383,9.112-.6,13.722l-.255,5.332-1.213.318c-1.085.276-2.128.51-2.979.68a3.663,3.663,0,0,1-2.937-1.19,20.541,20.541,0,0,1-5.107-7.795,1.7,1.7,0,0,1,0-.319,2.535,2.535,0,0,0-.277-.722,12.6,12.6,0,0,1-.83-9.941Z" transform="translate(615.703 1411.041)"/><path d="M49.136,24.43l1.915,3.547,7.725-1.806v-.446a7.177,7.177,0,0,1,.17-.722,2.65,2.65,0,0,0,0-1.763q-.319-.7-.638-1.466a26.172,26.172,0,0,0-3-5.65A45.54,45.54,0,0,0,43.731,6.311L41.964,5.142A25.274,25.274,0,0,0,25.748.894a28.65,28.65,0,0,0-5.384,1l-2,.467A50.239,50.239,0,0,0,5.212,7.1,27.288,27.288,0,0,0,2.233,9.03l-1.447,1-.575.382,1.426,1.954c.66.892,1.256,1.7,1.809,2.549,1.319,1.976,1.83,2.294,4.086,1.317.681-.3,1.362-.637,2.022-.977s1.256-.637,1.894-.913A53.47,53.47,0,0,1,23.28,11.2c1.319-.255,2.639-.489,3.937-.765a7.4,7.4,0,0,1,5.469.935c.745.467,1.532.913,2.3,1.359a59.57,59.57,0,0,1,5.278,3.335l.7.51A25.516,25.516,0,0,1,49.136,24.43Z" transform="translate(831.346 1525.69)"/></g></svg>