<svg xmlns="http://www.w3.org/2000/svg" xmlns:xlink="http://www.w3.org/1999/xlink" width="161" height="162" viewBox="0 0 161 162"><defs><clipPath id="a"><rect width="161" height="162" fill="#fff"/></clipPath></defs><g clip-path="url(#a)"><path d="M4.572,84.3A4.147,4.147,0,0,0,2.235,87.26a8.75,8.75,0,0,0,.725,6.426c.119.2.239.41.35.623s.358.657.571.981a8.786,8.786,0,0,0,4.836,3.755H8.81c.759.213,1.527.435,2.32.606l-.264.094a6.05,6.05,0,0,0-4.094,6.528,8.4,8.4,0,0,0,3.173,6.068,10.44,10.44,0,0,0,3.932,1.98,55.506,55.506,0,0,0,13.4,1.809H29.3c7.676,0,15.181-.068,22.44-.2,4.426-.077,8.913-.359,13.254-.623h.119c1.331-.086,2.67-.239,3.966-.384,1.066-.12,2.166-.248,3.25-.333,6.124-.478,12.282-1.383,18.235-2.262l4.708-.682c2.67-.384,5.356-1.007,7.676-1.553,2.149-.5,4.367-1.11,6.6-1.793,1.953-.606,3.906-1.305,5.8-1.971l1.254-.452a59.154,59.154,0,0,0,11.88-5.206,53.927,53.927,0,0,0,11.8-9.387,76.974,76.974,0,0,0,10.679-14.943,39.285,39.285,0,0,0,3.13-6.947l.085-.273c.281-.922.58-1.878.947-2.765A58.052,58.052,0,0,0,158.2,56.119a82.534,82.534,0,0,0,1.3-11.743l.051-.742c.307-4.907.452-9.908.589-14.738v-.222c.085-3.081.11-19.526-.307-25.056a2.643,2.643,0,0,0-1.339-2.082,2.124,2.124,0,0,0-2.227,0c-1.415.853-1.919,3.286-1.5,7.186.171,1.6,0,10.2-.093,17.119-.069,4.267-.128,8.013-.12,9.695a82.88,82.88,0,0,1-1.569,19.107,48.891,48.891,0,0,1-2.866,9.635c-.853,1.869-1.748,3.857-2.729,5.795-2.712,5.393-5.228,9.771-8.665,13.654-.674.751-1.288,1.562-1.885,2.338-.444.589-.9,1.178-1.373,1.707l-.623.742c-2.149,2.56-4.179,5.018-6.968,6.716l-1.518.922c-1.229.751-2.457,1.5-3.7,2.244a7.974,7.974,0,0,1-1.39.623l-2.926,1.023c-4.264,1.5-8.673,3.064-13.125,4.148-.853.2-1.638.418-2.448.64-1.339.358-2.73.734-4.094,1-4.264.81-9.271,1.706-14.346,2.491-1.9.291-3.864.478-5.766.649-1.569.154-3.19.307-4.776.512-4.827.632-9.766.853-14.5,1.152h-.5l-2.559.162-2.149.128h-.708c-.785.051-1.535.1-2.277.086-1.467,0-2.934-.06-4.4-.094-2-.051-4.085-.1-6.132-.111H27.446a56.066,56.066,0,0,1-11.54-.854,10.211,10.211,0,0,1-3.915-1.374,2.6,2.6,0,0,1-1.186-1.706,2.443,2.443,0,0,1,.614-1.861,3.633,3.633,0,0,1,1.194-1.075,13.693,13.693,0,0,1,3.2-1.084c1.706-.307,3.412-.776,5.032-1.229l1.168-.316a3.026,3.026,0,0,0,1.825-1.544,2.22,2.22,0,0,0,.077-2,2.15,2.15,0,0,0-1.5-1.255c-1.339-.282-2.7-.478-3.727-.623l-3.13-.393c-1.706-.213-3.514-.435-5.262-.7a4.851,4.851,0,0,1-2.627-1.109,7.579,7.579,0,0,1-1.817-2.808c-.367-.853-.2-1.28,0-1.536a3.915,3.915,0,0,1,2.431-1.656,53.432,53.432,0,0,1,5.689-.853,34.939,34.939,0,0,1,3.539,0h1.928a2.064,2.064,0,0,0,1.62-.606,2.126,2.126,0,0,0,.486-1.647,2.243,2.243,0,0,0-2.38-2.193l-2.482-.137c-1.2-.068-2.405-.128-3.608-.213a16.454,16.454,0,0,1-6.729-1.493,2.874,2.874,0,0,1-.938-.683,7.232,7.232,0,0,1-1.186-5.018,1.4,1.4,0,0,1,.264-.529,3.334,3.334,0,0,1,2.055-1.382c.554-.128,1.126-.213,1.706-.307l1.015-.162a39.862,39.862,0,0,1,7.284-.444,18.221,18.221,0,0,0,2.277-.162l.52-.06a1.561,1.561,0,0,0,1.476-1.246,2.562,2.562,0,0,0-.469-2.27,2.464,2.464,0,0,0-2.064-.853,16.516,16.516,0,0,1-4.264-.384c-.853-.188-1.782-.324-2.652-.452l-.64-.094A14.136,14.136,0,0,1,5.058,64.15a1.6,1.6,0,0,1-.5-.6,6.062,6.062,0,0,1-.563-3.669,1.63,1.63,0,0,1,1.16-1.391,18.122,18.122,0,0,1,7.676-1.1c1.612.119,3.326.2,5.569.248a3.613,3.613,0,0,0,1.535-.444,2.689,2.689,0,0,0,1.476-2.808c-.077-1.374-1.271-1.784-1.979-2.031l-1.134-.384A28.238,28.238,0,0,1,15.361,50.9,23.494,23.494,0,0,1,12.8,49.514c-.409-.239-.853-.486-1.237-.717A19.731,19.731,0,0,1,6.8,44.9a4.669,4.669,0,0,1-1.416-3.414,20.23,20.23,0,0,1,.58-3.277l.077-.359.154.853c.119.657.247,1.331.418,2a6.654,6.654,0,0,0,5.117,4.941,5.863,5.863,0,0,0,2.857-.145,7.162,7.162,0,0,0,4.162-3.559c.572-.913,1.083-1.843,1.621-2.825l.435-.8a5.917,5.917,0,0,1,.631.128l3.412.9,4.094,1.067a6.727,6.727,0,0,0,1.527.213h2.32c.955,0,1.91,0,2.857.06,1.467.051,2.925.119,4.384.179,1.936.085,3.864.171,5.8.23s3.539,0,5.117,0c2.405-.119,5.032-.3,8.264-.563,1.868-.154,3.727-.358,5.552-.606a36.653,36.653,0,0,0,5.4-1.3c.572-.171,1.143-.341,1.706-.495A21.606,21.606,0,0,0,85.511,26.609a33.131,33.131,0,0,0,2.559-7.2c.751-2.9.435-9.874.077-15.617l-.06-.913A2.85,2.85,0,0,0,85.528.119,1.706,1.706,0,0,0,83.285,2.2a5.431,5.431,0,0,0,.068.64,14.072,14.072,0,0,1,.119,1.536c0,1.033.051,2.244.085,3.533a80.5,80.5,0,0,1-.1,10.241,19.014,19.014,0,0,1-1.876,6.068c-1.808,3.277-4.734,5.871-8.947,7.937a38.1,38.1,0,0,1-5.245,1.929l-.605.188a25.462,25.462,0,0,1-4.742,1.161c-3.847.41-7.676.691-11.335.853a33.975,33.975,0,0,1-3.812-.137c-.853-.06-1.782-.128-2.687-.145-2.286-.051-4.571-.077-6.823-.1-1.893,0-3.8-.043-5.689-.077a12.535,12.535,0,0,1-2.559-.264c-2.832-.614-5.672-1.28-8.435-1.971-1.765-.435-3.557-.939-5.288-1.425l-1.007-.282a22.271,22.271,0,0,0-5.416-.99,5.381,5.381,0,0,0-4.87,2.466,13.2,13.2,0,0,0-2.559,9.217,9.56,9.56,0,0,0,2.755,6.093l.247.239a34.118,34.118,0,0,0,4.785,4.02l-.571.094a35.135,35.135,0,0,0-4.009.853A6.081,6.081,0,0,0,.93,56.827,9.254,9.254,0,0,0,3.54,68.391c.307.222.614.427.93.623-.367.2-.725.4-1.083.64A6.607,6.607,0,0,0,.367,76.669c.256,1.237.58,2.56.972,3.9a6.161,6.161,0,0,0,3.156,3.806ZM14.03,41.219a1.56,1.56,0,0,1-.921.111c-1.962-.589-2.96-1.5-3.318-3.038l-.136-.563a10.076,10.076,0,0,1-.375-2.057,2.916,2.916,0,0,1,.853.136l.35.077c1.748.384,3.531.853,5.245,1.263l1.39.35A6.484,6.484,0,0,1,14,41.219" fill="#1d1d1b"/><path d="M113.955,67.2,115.66,68.5l.376-.282.29-.2a5.569,5.569,0,0,0,.656-.5l.853-.759c1.024-.947,2.081-1.929,3.088-2.936s2.021-2.057,3.027-3.089c1.212-1.246,2.423-2.492,3.659-3.712a2.895,2.895,0,0,0,.5-3.891,1.528,1.528,0,0,0-1.058-.785,1.578,1.578,0,0,0-1.288.4,7.749,7.749,0,0,0-.853.853,111.844,111.844,0,0,1-9.492,9.259A3.95,3.95,0,0,0,113.878,67Z" fill="#1d1d1b"/><path d="M160.991,140.58a4.078,4.078,0,0,0-.426-1.827c-.119-.187-.23-.383-.367-.563a3.17,3.17,0,0,0-1.5-1.288q-2.106-.768-4.205-1.6c-1.518-.6-3.019-1.229-4.528-1.835-.93-.375-1.877-.716-2.806-1.083-1.51-.6-3.011-1.246-4.538-1.792-1.706-.623-3.48-1.127-5.2-1.707-2.747-.973-5.476-1.98-8.2-3-.366-.145-.853,3.883-.6,4.1a4.9,4.9,0,0,0,1.237.81c1.774.726,3.574,1.425,5.373,2.091,1.237.461,2.5.854,3.744,1.272.8.273,1.587.6,2.388.853l5.783,2.134a2.321,2.321,0,0,1,.486.349l-.059.154h-.649c-1.228,0-2.456,0-3.684.06-1.45.06-2.909.179-4.358.247-2.2.1-4.41.171-6.61.273-1.706.086-3.352.2-5.032.291-.956.059-1.919.128-2.883.179s-1.706,0-2.559.077c-2.652.2-35.523.443-38.175.648-.921.077-1.851.051-2.772.111-2.934.213-5.859.469-8.785.657-2.627.162-5.254.256-7.881.393-.8.042-1.595.136-2.388.179s-1.5,0-2.252,0h-.674c-1.51.12-20.606.265-22.116.367-.853.051-1.706,0-2.559.06l-6.533.4c-2.03.128-4.068.205-6.1.358-2.559.188-5.117.435-7.719.674-.358,0-.648,0-.793-.307a8.887,8.887,0,0,0,.785-.529c.776-.631,1.535-1.289,2.32-1.92,1.151-.913,2.337-1.792,3.471-2.731.725-.6,1.365-1.306,2.1-1.9a5.061,5.061,0,0,0,2.038-3.047c.051-.3-2.678-2.73-3.053-2.415-1.151.973-3.548,2.842-4.725,3.781-.682.546-1.416,1.041-2.1,1.587-1.527,1.229-3.019,2.492-4.554,3.712a90.042,90.042,0,0,0-7.582,7.57,3.64,3.64,0,0,0,.094,1.767,3.971,3.971,0,0,0,2.294,2.56c1.5.554,2.917,1.331,4.375,2,.955.443,1.936.853,2.883,1.288,1.4.674,2.763,1.408,4.162,2.083,1.629.785,3.267,1.536,4.9,2.312.452.214.853.5,1.322.717a43.273,43.273,0,0,1,4.955,2.833c.588.376,2.7-3.413,1.979-3.746-1.561-.751-3.07-1.6-4.6-2.407s-2.866-1.536-4.324-2.261-2.746-1.238-4.1-1.9c-2.132-1.032-4.264-2.09-6.388-3.149a3.1,3.1,0,0,1-.358-.239v-.162a2.776,2.776,0,0,0,.793-.077c2.141-.239,4.264-.495,6.422-.708,1.842-.188,3.693-.333,5.552-.469,1.706-.128,3.454-.2,5.186-.325,2.653-.187,5.3-.418,7.949-.571,2.5-.154,22.593-.239,25.1-.35a22.092,22.092,0,0,1,2.269-.2,20.611,20.611,0,0,0,2.38-.205c.981-.051,1.962,0,2.934-.1,1.45-.085,2.9-.222,4.35-.324.691-.06,1.39-.094,2.09-.137s1.493-.068,2.235-.119c1.228-.077,2.448-.171,3.667-.239,1.04-.06,2.09-.051,3.13-.136,1.629-.128,3.241-.316,4.87-.453.64-.051,1.288,0,1.928-.051,1.706-.12,33.714-.265,35.454-.393.717-.051,1.433-.051,2.15-.1,1.552-.111,3.1-.256,4.648-.358.691-.052,1.39,0,2.089-.069l1.45-.068a11.936,11.936,0,0,0,2.133-.128,22.164,22.164,0,0,1,2.5,0c1.287,0,2.558-.085,3.855-.128.853,0,1.629-.094,2.447-.06a19.924,19.924,0,0,0,3.711-.111c.3,0,.528,0,.682.316-.188.154-.358.3-.546.427-1.006.7-2.03,1.382-3.028,2.091-1.45,1.032-2.9,2.082-4.332,3.132s-2.951,2.176-4.418,3.285c-1.194.905-2.363,1.861-3.557,2.774a1.5,1.5,0,0,0-.512.614c-.221.478,3.25,3.217,4.111,2.978.572-.486,3.412-2.747,4.034-3.183.853-.631,1.706-1.365,2.627-1.937s1.843-1.263,2.755-1.912c.691-.486,1.407-.938,2.039-1.484A20.084,20.084,0,0,1,151.8,148.2c1.612-1.144,3.267-2.236,4.887-3.414a18.421,18.421,0,0,0,1.979-1.553c.375-.359,2.4-1.8,2.26-2.731" fill="#1d1d1b"/></g></svg>