<svg xmlns="http://www.w3.org/2000/svg" xmlns:xlink="http://www.w3.org/1999/xlink" width="242" height="119" viewBox="0 0 242 119"><defs><clipPath id="a"><rect width="242" height="119" fill="#fff"/></clipPath></defs><g clip-path="url(#a)"><path d="M106.2,26.176h1.544l10.035-.1c7.171-.065,14.342-.139,21.513-.185,9.617-.056,17.393-.074,24.471,0,4.381,0,8.836.121,13.142.213l4.055.083c4.028.074,8.055.167,12.091.25q11.274.241,22.537.436c1.32,0,2.669.1,3.971.167a47.113,47.113,0,0,0,9.3-.1c.391-.056.781-.093,1.172-.121a7.71,7.71,0,0,0,3.488-.853c3.822-2.236,5.738-5.371,5.683-9.276-.047-3.71-1.442-6.066-4.251-7.152l-1.014-.408a32.789,32.789,0,0,0-5.376-1.762,86.18,86.18,0,0,0-15.9-1.317c-4.8-.074-9.682-.093-14.4-.121H194.3l-11.71-.056q-10.11,0-20.22-.1c-16.082-.121-33.232-.26-50.495-.464-1.8,0-3.655-.186-5.441-.343-1.162-.093-2.325-.195-3.488-.26a3.417,3.417,0,0,1-2.148-1.02A14.671,14.671,0,0,0,82.7,2.8,7.669,7.669,0,0,1,77.2,4.48c-2.13-.121-4.3-.139-6.4-.148-1.5,0-3,0-4.511-.074-1.758-.056-3.516-.148-5.274-.241C58.549,3.877,56,3.747,53.489,3.71c-11.468-.13-21.55-.167-30.8-.121-3.609,0-7.506.232-12.259.677A11.544,11.544,0,0,0,2.511,8.2C.167,10.983-.53,13.71.512,16.2c2.074,5,5.506,7.643,10.231,7.838,6.073.26,12.184.362,16.825.427,4.185.056,8.427.065,12.538.074h7.543l28.107.213a5.277,5.277,0,0,1,.549.046q-.1.445-.223.928a97.11,97.11,0,0,0-4.1,23.755c-.074,2.523-.186,5.046-.288,7.569-.167,4.137-.344,8.432-.391,12.652a101.612,101.612,0,0,0,2.037,21.158q.549,2.727,1.042,5.473c.279,1.484.558,2.968.846,4.452l.381,1.985c.521,2.663,1.051,5.418,1.683,8.108a3.006,3.006,0,0,0,1.665,2.309c.93.371,2.074.121,3.4-.751l.353-.223-.1-.408-.363-1.271c-.261-.927-.54-1.855-.735-2.782-1.125-5.417-2.055-9.972-2.93-14.563a127.713,127.713,0,0,1-2.455-20.732c-.251-9.767-.242-21.279,1.721-32.6,1.07-6.141,2.455-12.643,5.357-18.654,2.195-4.527,5.7-6.419,10.156-5.473a8.035,8.035,0,0,1,6.4,6.4,84.951,84.951,0,0,1,1.433,17.337,403.592,403.592,0,0,0,2.465,49.96c.325,2.672.66,5.157,1.032,7.578a2.251,2.251,0,0,0,2.734,1.92,2.274,2.274,0,0,0,2.112-2.588,9.227,9.227,0,0,0-.158-1.326c-.066-.445-.112-.761-.14-1.141-.121-1.289-.223-2.588-.335-3.877-.176-2.124-.344-4.258-.558-6.382-.511-5.25-.986-10-1.562-14.795a24.975,24.975,0,0,1,1.348-11.354,12.269,12.269,0,0,1,4.093-6.085c1.488-1.169,3.162-2.2,5.32-1.855a8.606,8.606,0,0,0,1.86,0c2.483-.111,4.232,1.011,5.469,3.525a19.529,19.529,0,0,1,1.693,7.912c.269,7.059.548,14.35.7,21.529A101.711,101.711,0,0,0,128.3,96.07c.046.306.065.621.083.928a9.849,9.849,0,0,0,.1,1.15,2.788,2.788,0,0,0,2.874,2.384c1.4-.074,2.241-1.039,2.306-2.644a8.394,8.394,0,0,0-.093-1.206l-.056-.4c-.083-.8-.186-1.6-.288-2.393-.223-1.688-.446-3.432-.539-5.148-.168-3.3-.251-6.669-.335-9.925,0-1.326-.065-2.653-.1-3.979l-.288-10.1c-.084-2.875,0-5.445,1.219-7.875,1.478-2.848,3.218-4.638,5.478-5.565a8.055,8.055,0,0,1,7.236.074,9,9,0,0,1,4.3,5.334,15.737,15.737,0,0,1,.725,4.332c0,5.417-.046,11.215-.288,16.947s0,11.548.288,17a4.426,4.426,0,0,0,.419,1.679,2.476,2.476,0,0,0,3.051,1.373,2.278,2.278,0,0,0,1.517-.965,2.272,2.272,0,0,0,.343-1.762,124.125,124.125,0,0,1,0-19.34v-.38c.186-3.07.372-6.243.363-9.369a34.274,34.274,0,0,0-.651-7.124,2.606,2.606,0,0,1,.651-2.588,11.515,11.515,0,0,1,.93-.928c4.473-3.979,7.915-4.415,12.667-1.6a5.568,5.568,0,0,1,2.651,3.079,19.508,19.508,0,0,1,1.1,5.055c.353,8.961.334,17.049-.056,24.729a179.554,179.554,0,0,0,.632,29.247,3.005,3.005,0,0,0,1.554,2.458,4.06,4.06,0,0,0,1.86.519,3.126,3.126,0,0,0,1.572-.427c1.311-.751,1.125-1.91.93-2.921a108.35,108.35,0,0,1-1.023-17.216c0-6.9,0-13.914.074-20.7,0-3.655.056-7.3.074-10.955a30.078,30.078,0,0,0-1-7.68,14.009,14.009,0,0,0-6.092-8.506c-2.6-1.735-5.58-2.161-8.622-2.477a9.025,9.025,0,0,0-5.869,1.3c-1.227.77-2.409,1.586-3.655,2.458l-1.218.844c-3.051-4.35-6.632-6.577-10.929-6.79s-8.231,1.623-11.821,5.649l-.214-.343a9.492,9.492,0,0,0-1.47-1.976c-4.985-4.749-11.9-5.723-17.625-2.467a28.348,28.348,0,0,0-3.162,2.217c-.456.353-.93.714-1.377,1.048l-.4.287V26.176Zm-1.182-16.52h5.655c7.311.186,13.459.352,19.681.566,1.972.065,3.944.158,5.906.25,2.79.139,5.748.278,8.622.334,3.06.056,6.167-.065,9.171-.176l1.944-.074c8.259-.287,15.811-.241,23.075.148,2.028.111,4.093.056,6.083,0,1.4,0,2.855-.074,4.26-.056,6.771.083,12.891.223,18.722.408s11.273.427,16.575.733a26.215,26.215,0,0,1,8.677,2.106c1.861.788,2.307,2.041,1.451,4.471-.567,1.614-1.86,2.542-4.3,3.005a45.878,45.878,0,0,1-10.519.686c-2.6-.1-5.246-.139-7.794-.185-1.739,0-3.469-.056-5.2-.1-2.26-.056-4.53-.13-6.79-.2s-4.39-.139-6.585-.195H188.3l-6.8-.148c-3.47-.083-6.939-.158-10.417-.2-6.4-.083-12.9-.111-19.188-.139H149.8c-3.3,0-6.724,0-10.091.056-2.3.056-4.651.158-6.9.25-2.791.121-5.581.241-8.371.288-4.576.074-9.227.056-13.728,0h-5a4.943,4.943,0,0,1-.661-.083h-.074c-.047-.121-.1-.241-.149-.353a11.355,11.355,0,0,1-.539-1.438,1.311,1.311,0,0,1,0-.835,10.831,10.831,0,0,0,.772-8.933V9.647Zm-4.083,4.5v.037a15.674,15.674,0,0,0-10.947-3.043,15.343,15.343,0,0,0-9.478,4.768V15.75a15.415,15.415,0,0,1,2.846-8.4,8.7,8.7,0,0,1,7.078-3.3h.1A9.979,9.979,0,0,1,100.9,14.192ZM76.221,19.424h-.112a9.424,9.424,0,0,1-1.377.167h-.2c-7.952.065-16.165.139-24.247.158-4.2,0-8.668,0-14.509-.13-1.86,0-3.72-.093-5.515-.158l-4.6-.139H22.843a23.123,23.123,0,0,0-2.595.1,57.732,57.732,0,0,1-10.064-.287L9.1,19.043c-2.093-.186-3.6-1.4-4.65-3.71a3.706,3.706,0,0,1,1.6-4.295A10.78,10.78,0,0,1,11.626,9.09l2.13-.148c3.423-.241,6.957-.482,10.417-.51h3.953c10.668-.074,21.7-.148,32.553.111,1.786,0,3.562.111,5.339.186,3.72.139,7.515.288,11.291.186a.242.242,0,0,1,.1,0,17.248,17.248,0,0,0-1.2,10.547" fill="#1d1d1b"/><path d="M42.208,43.578c-4.055-3.785-7.692-5.7-11.766-6.215l-1.125-.139c-1.246-.158-2.539-.325-3.813-.445a18.384,18.384,0,0,0-11.068,2.013,30.043,30.043,0,0,0-5.246,3.655A21.676,21.676,0,0,0,1.972,54.505,34.757,34.757,0,0,0,1.5,64.532,22.6,22.6,0,0,0,12.305,82.379a29.625,29.625,0,0,0,14.37,4.406h1.07a17.478,17.478,0,0,0,7.766-1.716A55.776,55.776,0,0,0,42.6,80.793,16.174,16.174,0,0,0,49.472,70.33c.344-1.7.53-3.432.716-5.111.084-.761.167-1.521.26-2.282v-.083c-.065-6.493-1.777-11.771-5.227-16.029A32.632,32.632,0,0,0,42.2,43.56Zm3.451,22.967c-.66,5.714-3.72,10.018-9.3,13.162l-.54.26a5.508,5.508,0,0,0-.67.315c-3.953,2.263-8.371,2.634-13.812,1.16a23.29,23.29,0,0,1-7.013-2.922,18.046,18.046,0,0,1-5.776-7.087,21.447,21.447,0,0,1-2.79-10.853c.093-.594.177-1.2.26-1.8A34.578,34.578,0,0,1,6.7,54.857c1.135-4.536,4.409-7.634,7.776-10.3a24.2,24.2,0,0,1,2.521-1.67l.13-.074c3.367-2.022,7.106-1.855,9.989-1.577,6.427.742,11.738,4.063,16.239,10.2a8.893,8.893,0,0,1,1.609,3.71,42.193,42.193,0,0,1,.66,11.4" fill="#1d1d1b"/><path d="M236.764,46.825a33.476,33.476,0,0,0-3.023-3.265c-4.027-3.766-7.664-5.677-11.775-6.2l-.977-.121c-1.293-.167-2.641-.343-3.971-.464a18.253,18.253,0,0,0-10.882,1.929,30.14,30.14,0,0,0-5.423,3.757,21.909,21.909,0,0,0-7.208,12.059,31.857,31.857,0,0,0-.139,12.541,21.637,21.637,0,0,0,5.8,11.558c4.251,4.248,9.6,6.836,16.351,7.912a22.32,22.32,0,0,0,3.395.269,19.909,19.909,0,0,0,8.138-1.725,44.208,44.208,0,0,0,7.116-4.276,16.13,16.13,0,0,0,6.854-10.473c.335-1.688.531-3.432.707-5.111.084-.761.168-1.521.27-2.282v-.074c-.056-6.493-1.767-11.752-5.236-16.029Zm.446,19.73c-.66,5.788-3.72,10.12-9.431,13.246l-.456.213c-.195.093-.4.185-.586.288-3.943,2.273-8.371,2.644-13.812,1.178a23.6,23.6,0,0,1-6.864-2.783,17.644,17.644,0,0,1-5.934-7.17,21.578,21.578,0,0,1-2.79-10.853c.093-.594.177-1.2.261-1.8a37.66,37.66,0,0,1,.669-3.933c1.126-4.527,4.4-7.625,7.776-10.306a23.511,23.511,0,0,1,2.641-1.735c2.66-1.6,5.739-2.087,9.989-1.6,6.437.733,11.757,4.054,16.249,10.2a8.9,8.9,0,0,1,1.609,3.71,41.178,41.178,0,0,1,.67,11.4" fill="#1d1d1b"/><path d="M98.673,26.649a17.038,17.038,0,0,0-.465-1.855c-.93-2.95-5.72-5.046-9.236-4.072a8.04,8.04,0,0,0-5.283,4.406c-1.656,3.3-1.59,6.243.2,9a7.736,7.736,0,0,0,5.05,3.71,6.444,6.444,0,0,0,1.032.083,7.061,7.061,0,0,0,4.316-1.577,11.2,11.2,0,0,0,4.576-8.682V27.5c-.065-.269-.121-.547-.177-.816Zm-4.139,1.428a7.124,7.124,0,0,1-2.195,5.083,3.3,3.3,0,0,1-2.818,1.067,3.441,3.441,0,0,1-2.511-1.855,5.709,5.709,0,0,1-.186-4.276,6.375,6.375,0,0,1,2.911-3.757,2.872,2.872,0,0,1,1.284-.3,3.525,3.525,0,0,1,1.609.4A3.174,3.174,0,0,1,94.4,26.687a9.051,9.051,0,0,0,.112.928Z" fill="#1d1d1b"/><path d="M34.172,70.33a15.59,15.59,0,0,0-2.539-5.454,14.351,14.351,0,0,0-1.786-1.855,6.828,6.828,0,0,0-4.929-1.762c-3.5.158-6.064,1.92-8.083,5.566a7.889,7.889,0,0,0-1.377,4.406v.3l.251.158a3.523,3.523,0,0,0,3.627.482l.2-.111.288-.826c.13-.408.27-.807.428-1.2a8.35,8.35,0,0,1,2.967-3.942,3.58,3.58,0,0,1,2.7-.594,2.912,2.912,0,0,1,1.916,1.243,23.172,23.172,0,0,1,1.683,3.237c.186.417.381.835.577,1.243a10.259,10.259,0,0,1,.447,1.132l.242.649.2.51,3.813-1.178-.149-.631c-.167-.473-.316-.928-.465-1.4" fill="#1d1d1b"/><path d="M17.588,57.139a3.249,3.249,0,0,0-2.846-3.376,3.036,3.036,0,0,0-2.167.928,3.575,3.575,0,0,0-1,2.616,3.084,3.084,0,0,0,.865,2.245,2.73,2.73,0,0,0,1.944.7h.084a3.25,3.25,0,0,0,2.307-.983,2.907,2.907,0,0,0,.809-2.1" fill="#1d1d1b"/><path d="M36.357,56.6a2.793,2.793,0,0,0-2.018,1.02,3.213,3.213,0,0,0-.716,2.208,3.131,3.131,0,0,0,3.218,3.005,3.157,3.157,0,0,0,2.251-.983,2.659,2.659,0,0,0,.819-1.976A3.716,3.716,0,0,0,36.348,56.6" fill="#1d1d1b"/><path d="M226.151,65.5l-3.85-.779-.168.482c-.111.343-.214.64-.307.928-.167.492-.3.881-.446,1.261a8.426,8.426,0,0,1-2.967,3.933,3.626,3.626,0,0,1-2.7.594,2.889,2.889,0,0,1-1.916-1.243,22.292,22.292,0,0,1-1.684-3.237c-.195-.417-.381-.835-.586-1.243a10.684,10.684,0,0,1-.446-1.132c-.075-.2-.149-.427-.233-.649l-.195-.51-3.832,1.178.205.566c.167.492.325.983.483,1.466a15.493,15.493,0,0,0,2.521,5.389,14.338,14.338,0,0,0,1.786,1.855,6.835,6.835,0,0,0,4.585,1.772h.344c3.488-.158,6.055-1.92,8.082-5.565a7.845,7.845,0,0,0,1.349-4.638Z" fill="#1d1d1b"/><path d="M209.14,57.241a3.711,3.711,0,0,0-1.1-2.681,2.591,2.591,0,0,0-1.861-.789,3.223,3.223,0,0,0-3.032,3.4,2.736,2.736,0,0,0,2.791,3.052,3.081,3.081,0,0,0,3.208-2.978" fill="#1d1d1b"/><path d="M228.049,56.592a2.972,2.972,0,0,0-2.856,2.894,3.122,3.122,0,0,0,3.1,3.339h.112a3.233,3.233,0,0,0,2.186-.928,2.782,2.782,0,0,0,.93-1.939,3.335,3.335,0,0,0-1.07-2.319,3.405,3.405,0,0,0-2.353-1.095" fill="#1d1d1b"/></g></svg>