<svg xmlns="http://www.w3.org/2000/svg" xmlns:xlink="http://www.w3.org/1999/xlink" width="122" height="180" viewBox="0 0 122 180"><defs><clipPath id="a"><rect width="122" height="180" fill="#fff"/></clipPath></defs><g clip-path="url(#a)"><path d="M121.233,43.129c-.079-2.171-.061-4.483-.053-6.925.061-8.265.122-17.624-3.9-24.2a20.56,20.56,0,0,0-5.486-6.26,24.428,24.428,0,0,0-6.977-3.432C95.226-.762,84.709-.105,74.557.56c-2.834.184-5.765.368-8.608.464L22.928,2.478l-1.858.088c-9.593.6-15.288,3.555-17.442,9.018A47.628,47.628,0,0,0,2,16.18l-.227.735A26.088,26.088,0,0,0,.689,21.59C.445,24.033.366,26.546.3,28.98c0,.7-.044,1.41-.07,2.11C.14,33.445.1,35.844.061,38.164v.876c0,1.252-.052,2.548,0,3.809.044.875.113,1.83.183,2.74s.148,1.856.192,2.784c.1,2.338.148,4.71.2,7V60.21c.061,1.506.14,3.021.218,4.527.122,2.416.244,4.912.323,7.372s.061,4.754.061,7.074v8.072c0,.875.052,1.681.087,2.521.052,1.164.1,2.364.113,3.563s0,2.486-.061,3.695-.061,2.171-.061,3.248c0,2.128.052,12.783.131,14.63.061,1.3.14,2.627.218,3.9s.166,2.627.218,3.993c.052,1.059.052,2.136.061,3.169v3.966c0,2.023.052,4.045.113,6.068.087,3.178.192,6.776.392,10.261.122,2.1.305,4.237.488,6.3.087.875.166,1.812.235,2.723.061.647.1,1.295.157,1.952.1,1.453.218,2.959.392,4.43,1.4,11.942,7.849,17.152,21.428,17.414,5.067.1,10.335.263,15.436.421,20.887.665,42.481,1.357,62.383-2.128,1.831-.324,3.628-.779,5.468-1.269a6.013,6.013,0,0,0,1.631-.788c10.674-6.777,10.657-18.7,10.648-30.241,0-2.574,0-5.253.113-7.8.707-15.331,1.073-39.548,1.073-55.561,0-12.792-.261-25.758-.767-38.523Zm-4.169,3.782v1.173c0,1.471-.044,2.933-.07,4.378l-.078,4.719c0,1.865-.061,3.721-.07,5.577v9.219c0,.946,0,1.891-.052,2.845,0,1.147-.053,2.3,0,3.45,0,1,.052,2.022.1,3.012l.079,1.839v.744c.044,1.287.087,2.627.078,3.94,0,3.24-.043,6.076-.1,8.677-.044,1.751-.1,5.306-.148,9.036-.07,4.719-.14,9.631-.2,11.8,0,1.243-.07,2.5-.1,3.738l-.07,2.7c0,.814-.043,1.62-.07,2.434-.061,1.707-.113,3.5-.122,5.2,0,1.182,0,2.4.07,3.572,0,.945.061,1.891.07,2.836s0,2.014,0,3.021v10.051c-.087,2.443-.34,4.894-.558,7.066a13.834,13.834,0,0,1-.366,1.838c-.079.324-.157.648-.227.972a8.442,8.442,0,0,1-2.564,4.089l-.227.245a37.406,37.406,0,0,1-2.878,2.81,10.282,10.282,0,0,1-1.744,1.13l-.445.254-1.064.63a33.087,33.087,0,0,1-3.253,1.795,12.051,12.051,0,0,1-3.532.972c-2.538.306-5.084.473-7.247.6H85.738a23.364,23.364,0,0,0-4.779.2,8.292,8.292,0,0,1-1.666.088h-.706l-2.616.061c-1.962,0-4,.079-5.991.175-1.352.07-2.739.175-4.073.28-1.483.123-3.018.237-4.535.307-2.137.087-4.3.114-6.393.149-1.108,0-2.206,0-3.314.052l-3.637.088-3.288.087H43.5a11.291,11.291,0,0,0-2.2.079,40.383,40.383,0,0,1-6.619.412H31.762c-2.852,0-5.651-.1-8.32-.3a25.809,25.809,0,0,1-5.425-.946A15,15,0,0,1,13.3,171.6a11.193,11.193,0,0,1-3.837-4.378,10.1,10.1,0,0,1-.637-2.626c-.052-.351-.1-.71-.174-1.051a33.029,33.029,0,0,1-.427-6.654v-2.215a9.448,9.448,0,0,0-.061-1.313,20.916,20.916,0,0,1-.061-2.1,17.021,17.021,0,0,1,.174-1.908,19.1,19.1,0,0,0,.166-1.944c0-1.375,0-2.784-.061-4.15v-.928c0-.876-.078-1.751-.122-2.627l-.174-3.581c-.052-1.295-.113-2.626-.183-3.869-.1-1.821-.192-3.634-.323-5.446a17.983,17.983,0,0,0-.157-1.8c-.061-.6-.14-1.357-.183-2.031-.052-.876-.078-1.69-.1-2.53L7.082,118.9l-.1-2.119c-.052-1.051-.1-2.1-.148-3.152,0-1.392-.087-5.349-.131-9.184,0-3.231-.061-6.278-.1-7.442l-.061-2.285c-.07-2.233-.14-4.465-.183-6.7V61.235c0-1.524-.061-3.056-.1-4.579,0-1.129-.061-2.268-.078-3.4-.052-2.5-.1-5-.131-7.494L5.991,42.8c0-1.436-.061-2.924-.044-4.378,0-1.182.07-2.382.131-3.5,0-.578.061-1.156.087-1.751s.044-1.077.061-1.62c0-.753.052-1.5.087-2.241s.078-1.62.122-2.425c.07-1.235.131-2.469.183-3.712v-1.1a9.15,9.15,0,0,1,0-1.751c.044-.333.078-.665.122-1.007.227-2.014.462-4.1,1.866-5.927a3.162,3.162,0,0,0,.41-.744,5.172,5.172,0,0,1,.532-.954,9.94,9.94,0,0,1,4.971-3.336A29.474,29.474,0,0,1,25.283,7.022H27.1V7.1L29.434,7c2.276-.088,4.552-.175,6.837-.28,2.084-.1,4.238-.193,6.34-.385a59.074,59.074,0,0,1,7.971,0c1.509.061,3.061.123,4.587.131,2.555,0,5.154-.061,7.666-.114l4.64-.079q2.616,0,5.3-.114h.174C75.569,6.076,78.325,5.98,81,5.8a77.9,77.9,0,0,1,14.434.727,43.121,43.121,0,0,1,9.593,2.206l.7.245a20.191,20.191,0,0,1,3.977,1.751l.872.508a7.062,7.062,0,0,1,3.341,2.977,17.247,17.247,0,0,1,1.247,3.406,38.729,38.729,0,0,1,.741,4.605c.262,2.329.427,4.264.506,6.129.052,1.182.07,2.381.078,3.546s0,2.46.088,3.677.183,2.626.287,3.922.21,2.539.271,3.809.043,2.521,0,3.738" fill="#1d1d1b"/><path d="M12.053,134.919c-.637-16.224-.8-41.964-.872-58.2-.078-15.76-1.674-32.85.741-48.4a7.4,7.4,0,0,0,.253-1.751A4.7,4.7,0,0,1,14,22.6a12.552,12.552,0,0,1,3.358-1.926A12.964,12.964,0,0,1,22.03,19.4c1.4-.114,2.808,0,4.212,0,2.267-.061,4.526-.14,6.785-.271,2.538-.158,5.058-.438,7.6-.552,2.39-.1,4.779-.061,7.169-.052h21.3c1.334,0,2.616-.123,3.994-.131,1.648,0,3.305.053,4.954.053q3.8,0,7.614-.044c1.578,0,3.157-.105,4.736-.1q3.654,0,7.308.079c1.081,0,2.154.131,3.236.184,1.43.07,2.852.114,4.282.2a2.883,2.883,0,0,1,.872.228c5.8,2.189,5.555,3.9,5.6,10.1q.235,30.214.331,60.411c.044,10.069-.1,29.645-.061,39.714,0,7.477.585,15.2-9.044,16.766-25.622,4.177-53.042,3.021-78.961,2.574-3.079-.052-6.454-.227-8.721-2.223-2.573-2.242-2.9-5.963-3.026-9.307l-.078-2.075Zm4.125-10.025c.131,2.968.262,5.253.331,7.468.1,3.3.183,6.6,1.413,9.754.236.6.5,1.208,1.3,1.348a27.417,27.417,0,0,0,2.965.578c2.7.175,5.425.315,8.137.333,3.61,0,7.221-.1,10.832-.123,1.334,0,2.669.175,3.994.14,2.224-.061,4.439-.245,6.654-.341s4.64-.132,6.977-.237c1.526-.061,3.052-.271,4.57-.289,3.192,0,6.384.062,9.593,0q6.1-.06,12.21-.28c2.887-.1,5.765-.306,8.643-.5,1.361-.1,2.7-.271,4.055-.42a24.31,24.31,0,0,0,6.061-1.278c1.422-.543,2.617-1.217,3.027-2.776.165-.674.322-1.357.427-2.04a66.811,66.811,0,0,0,.715-11.189c0-4.719.061-18.938,0-23.639-.044-2.128-.061-4.264-.157-6.392-.113-2.627-.349-5.253-.427-7.88-.061-2.154.069-4.308.061-6.47q0-7.289-.114-14.586c-.043-3.59-.139-7.179-.218-10.778-.061-2.627-.174-5.315-.165-7.976,0-3.178.1-6.356.174-9.526.044-2.163.131-4.316.148-6.47s0-4.378-.069-6.531c0-1.182-.471-1.506-1.684-1.506h-2.616c-3.087-.14-6.166-.315-9.253-.481-1.212-.061-2.416-.21-3.628-.219-2.171,0-4.36.088-6.515.088-2.913,0-5.826,0-8.721-.053H64.092c-2.686,0-5.372.14-8.058.149-3.157,0-6.323-.07-9.48-.07-3.567,0-7.143,0-10.71.105s-7.108.193-10.666.306a20.751,20.751,0,0,0-6.349.876,2.852,2.852,0,0,0-1.98,1.48,8.107,8.107,0,0,0-.471,1.751,45.47,45.47,0,0,0-.689,8.291c.157,2.189,0,4.378,0,6.593,0,2.819-.113,5.639-.157,8.466V63.476c0,2.679-.218,5.358-.148,8.037.087,3.134.392,6.26.576,9.386.14,2.434.244,4.877.349,7.319.052,1.27.1,2.53.113,3.8v25.075c0,2.776-.1,5.7-.148,7.88" fill="#1d1d1b"/><path d="M72.054,162.165c-.052-.341-.078-.682-.113-1.024a12.966,12.966,0,0,0-.384-2.364,11.7,11.7,0,0,0-2.285-4.264,5.414,5.414,0,0,0-3.872-2.127,14.427,14.427,0,0,0-3.768.368,7.181,7.181,0,0,0-2.032.761,17.25,17.25,0,0,0-1.64,1.007l-.515.342a6.865,6.865,0,0,0-3.576,6.049,10.217,10.217,0,0,0,.584,3.441,8.376,8.376,0,0,0,6.052,5.577,9.33,9.33,0,0,0,2.363.3,10.811,10.811,0,0,0,3.279-.534,8.633,8.633,0,0,0,4.36-3.292,6.144,6.144,0,0,0,1.317-3.774h.244Zm-4.866,3.2a7.518,7.518,0,0,1-3.288,1.261l-.314.07-.924-.158c-.767-.131-1.57-.271-2.337-.481a2.82,2.82,0,0,1-1.526-1.41,7.976,7.976,0,0,1-1.082-3.554,2.2,2.2,0,0,1,.558-1.839,1.051,1.051,0,0,0,.279-.543,1.478,1.478,0,0,1,1.09-1.138l.567-.21a10.185,10.185,0,0,1,2.9-.8h.14a4.2,4.2,0,0,1,3.419,1.97A15.807,15.807,0,0,1,68,163.286a2.3,2.3,0,0,1-.811,2.075Z" fill="#1d1d1b"/><path d="M63.5,16.3c-.593-.1-1.177-.21-1.744-.28-1.177-.131-1.491-.946-1.7-2.04-.27-1.462.968-1.874,1.814-2.521.689-.525,1.378-.14,2.032.131a2.025,2.025,0,0,1,1.125,2.171c-.061.341-.157.674-.209,1.024s-.061.928-.741.954c-.218,0-.427.245-.645.377l.1.184" fill="#1d1d1b"/><path d="M93.8,83.569c0-1.751-.061-3.607,0-5.393.113-5.752.044-11.548,0-17.152v-.779l-.14-2.311c-.157-2.574-.314-5.139-.48-7.713-.061-.875-.131-1.83-.2-2.723l-.122-1.55-.305-.228a2.252,2.252,0,0,0-1.962-.473h-.366a64.287,64.287,0,0,0-8.791-.289c-3.262.087-6.585.228-9.794.35l-4.8.193-3.227.114c-1.84.061-3.689.123-5.538.2a2.209,2.209,0,0,0-2.244,1.592,2.223,2.223,0,0,0-.058.982c.087,1.357.1,2.679.07,3.949-.052,1.751-.131,3.555-.2,5.332-.061,1.313-.113,2.627-.166,3.957,0,1.156-.07,2.32-.1,3.5-.052,1.812-.1,3.695-.192,5.533-.078,1.567-.244,3.231-.515,5.069a30.035,30.035,0,0,1-.733,3.353,29.465,29.465,0,0,0-.811,3.808v.07a30.028,30.028,0,0,1-3.759,8.265,13.722,13.722,0,0,1-.811,1.208,15.176,15.176,0,0,0,.183-2.828,7.317,7.317,0,0,0-1.936-4.789,9.658,9.658,0,0,0-4.805-2.986,6.533,6.533,0,0,0-6.855,1.917c-.2.2-.4.42-.593.639l-.314.333a7.287,7.287,0,0,0-1.814,7.319,8.852,8.852,0,0,0,2.224,4.089c-1.012,0-2.023.07-3.035.079h-2.1a8.6,8.6,0,0,0-1.526.1,1.941,1.941,0,0,0-1.666,1.926v11.75c0,2.031,0,4.132.079,6.207a2.319,2.319,0,0,0,2.529,2.531c1.09-.027,1.962,0,2.93,0h.872l3.166.1c2.111.07,4.282.131,6.436.149h2.294a87.46,87.46,0,0,0,12.393-.692,27.37,27.37,0,0,0,6.977-1.7,19.125,19.125,0,0,0,7.727-6.339A31.115,31.115,0,0,0,75.8,103c.044.771.087,1.541.113,2.3.087,1.891.157,3.791.235,5.682s.148,3.887.235,5.831a1.533,1.533,0,0,0,.794,1.34l.357.166a3.478,3.478,0,0,0,2.616.4,3.148,3.148,0,0,1,.628-.053h.41l1.814-.114c2.015-.122,4.02-.254,6.035-.367.872-.053,1.6-.07,2.32-.062a1.934,1.934,0,0,0,1.611-.513,1.947,1.947,0,0,0,.6-1.588l.052-1.427c.052-1.252.1-2.5.122-3.765q.113-5.4.2-10.786V92.281c0-1.69.052-3.388.052-5.087V83.473ZM89.461,97.578v16.6h-.131c-1.3.122-2.616.227-3.907.332l-4.648.324H80.33c-.061-1.19-.113-2.372-.166-3.563-.1-2.338-.209-4.684-.331-7-.157-2.811-.384-5.569-.576-7.88-.148-1.812-.323-3.625-.506-5.446l-.192-2.022a4.47,4.47,0,0,0-.122-.823,1.749,1.749,0,0,0-1.272-1.563,1.737,1.737,0,0,0-.708-.048,1.854,1.854,0,0,0-1.422.569,1.756,1.756,0,0,0-.375,1.436,8.9,8.9,0,0,1,0,2.705l-.288,1.646a33.089,33.089,0,0,1-1.317,5.682,28.545,28.545,0,0,1-4.361,7.95c-.2.254-.4.525-.593.788a12,12,0,0,1-1.02,1.287,40.3,40.3,0,0,1-3.061,2.933,4.266,4.266,0,0,1-1.483.7,43.967,43.967,0,0,1-4.483,1.209,38.744,38.744,0,0,1-4.762.63c-2.294.166-4.57.245-7.09.315-1.125,0-2.25,0-3.375.053H39.986l-2.695.1c-.959.044-1.91.079-2.869.1H30.236a49.127,49.127,0,0,0,.157-5.682v-8.449c.872-.087,1.744-.157,2.616-.218s1.744-.141,2.616-.228c.733-.07,1.465-.123,2.2-.175a33.018,33.018,0,0,0,6.1-.875c1.09-.289,2.163-.639,3.2-.981l1.221-.4a1.743,1.743,0,0,0,.637-.359l.645-.543A21.507,21.507,0,0,0,52.2,94.242a28.517,28.517,0,0,0,4.954-9.281,36.066,36.066,0,0,0,1.666-9.071c.052-.569.1-1.138.166-1.751.1-.972.2-1.979.262-2.986.148-2.627.331-6.129.445-9.718.07-2.11.087-4.246.1-6.321V49.73c2.39-.079,4.762-.184,7.143-.289,6.977-.3,14.268-.6,21.437-.368.044.411.078.805.113,1.2.192,2.627.375,5.174.558,7.792.052.683.1,1.357.166,2.04.122,1.524.253,3.108.288,4.649.07,2.627.061,5.376,0,8v1.6c0,.876,0,1.664-.052,2.5S89.4,78.6,89.4,79.48V92.325a7.816,7.816,0,0,0,.078,1.007,4.721,4.721,0,0,1,0,1.2,17.014,17.014,0,0,0-.148,2.951ZM44.5,91.353a8.341,8.341,0,0,1-2.887,3.24.808.808,0,0,1-.645.14,6.842,6.842,0,0,1-3.157-1.453,3.572,3.572,0,0,1-.994-4.562,12.684,12.684,0,0,1,2.041-2.679,1.741,1.741,0,0,1,1.055-.455,6.277,6.277,0,0,1,.8-.052,5.66,5.66,0,0,1,2.73.7,2.539,2.539,0,0,1,1.369,1.917c.061.341.1.683.139,1.024l.061.438a3.574,3.574,0,0,1-.515,1.751" fill="#1d1d1b"/><path d="M65.2,73.3a1.74,1.74,0,0,0-2.189-.517,2.752,2.752,0,0,0-1.622,3.152c.061.289.148.578.236.875a2.2,2.2,0,0,0,2.128,1.751h.192a2.349,2.349,0,0,0,2.25-2.058,5.231,5.231,0,0,0,.044-.569v-.2a2.4,2.4,0,0,0-.872-2.162l-.2-.236" fill="#1d1d1b"/><path d="M64.318,63.143c-1.526.131-2.494,1.033-2.459,2.311A2.482,2.482,0,0,0,64.475,68.2h.1a2.344,2.344,0,0,0,2.311-2.46,2.835,2.835,0,0,0-.82-2.11,2.279,2.279,0,0,0-1.744-.5" fill="#1d1d1b"/><path d="M65.949,54.519a1.9,1.9,0,0,0-1.518-.385,2.494,2.494,0,0,0-1.64,1.051,2.636,2.636,0,0,0-.366,2,2.394,2.394,0,0,0,1.988,1.909H64.5a3.3,3.3,0,0,0,2.416-1.445,1.124,1.124,0,0,0,.1-.569v-.1a2.886,2.886,0,0,0-1.064-2.46Z" fill="#1d1d1b"/></g></svg>